<svg width="18" height="20" viewBox="0 0 18 20" fill="none" xmlns="http://www.w3.org/2000/svg">
<path d="M2.25 17.2714H5.625V10.5857H12.375V17.2714H15.75V7.24286L9 2.22857L2.25 7.24286V17.2714ZM2.25 19.5C1.63125 19.5 1.10138 19.2816 0.660377 18.8448C0.219377 18.408 -0.00074809 17.8835 1.91002e-06 17.2714V7.24286C1.91002e-06 6.89 0.0798767 6.55571 0.239627 6.24C0.399377 5.92429 0.619502 5.66428 0.900002 5.46L7.65 0.445714C7.85625 0.297143 8.07187 0.185714 8.29687 0.111428C8.52187 0.0371427 8.75625 0 9 0C9.24375 0 9.47812 0.0371427 9.70312 0.111428C9.92812 0.185714 10.1437 0.297143 10.35 0.445714L17.1 5.46C17.3812 5.66428 17.6017 5.92429 17.7615 6.24C17.9212 6.55571 18.0007 6.89 18 7.24286V17.2714C18 17.8843 17.7795 18.4091 17.3385 18.8459C16.8975 19.2827 16.368 19.5007 15.75 19.5H10.125V12.8143H7.875V19.5H2.25Z" fill="#808080"/>
</svg>
